PLOT
Beneath the gratuitous nudity lies a complex and visually striking 

movie.
In Madrid of the present days, the waitress Lucía leaves her job and goes to her apartment to meet her mate Lorenzo, who seems to be very depressed. When she arrives, she receives bad news about Lorenzo from the police. She moves alone to an isolated island, where she meets a stranger and lodges in a pension where he is living for the last months. The story shifts to six years ago, when Lorenzo and a woman, without knowing even the name of each other, have a magnificent sexual 
intercourse. The woman gets pregnant, and her daughter is raised with out a father. Meanwhile, Lorenzo is a writer that lost his creation skills and one night meets Lucia in a restaurant. She confesses to him that she is in love with him and has been stalking him for a long time. They fall in love for each other and Lucia moves to his apartment. Later, Lorenzo is informed by his friend Pepe that he has a daughter, and he meets her in a square, with her baby sitter. From this point on, Lorenzo mixes his reveries with reality.

CAST

Starring: Paz Vega, Tristan Ulloa, Najwa Nimri, Daniel Freire, Elena Anaya, Silvia Llanos, Javier Cámara, Diana Suarez

Director: Julio Medem
Screenwriter: Julio Medem
Producer: Fernando Bovaira, Enrique Lopez Lavigne
Studio: Palm Pictures 

-----------------------------------------------------------------------------------

Sex and Lucia 2001 DVDRip Xvid fasamoo LKRG

RIPPER : fasamoo
Format : AVI
Format/Info : Audio Video Interleave
File size : 800 MiB
Duration : 2h 8mn
Overall bit rate : 874 Kbps
Writing application : VirtualDubMod 1.5.4.1 (build 

2178/release)
Writing library : VirtualDubMod build 2178/release
Language : Spanish
Subtitles : English(*.srt); 

English,Francais(*.idx,*.sub)
Genre : Drama | Romance 


Video
ID : 0
Format : MPEG-4 Visual
Format profile : Advanced Simple@L5
Format settings, BVOP : Yes
Format settings, QPel : No
Format settings, GMC : No warppoints
Format settings, Matrix : Custom
Codec ID : XVID
Codec ID/Hint : XviD
Duration : 2h 8mn
Bit rate : 753 Kbps
Width : 608 pixels
Height : 240 pixels
Display aspect ratio : 2.533
Frame rate : 23.976 fps
Color space : YUV
Chroma subsampling : 4:2:0
Bit depth : 8 bits
Scan type : Progressive
Bits/(Pixel*Frame) : 0.215
Stream size : 689 MiB (86%)
Writing library : XviD 1.2.1 (UTC 2008-12-04)

Audio
ID : 1
Format : MPEG Audio
Format version : Version 1
Format profile : Layer 3
Mode : Joint stereo
Mode extension : MS Stereo
Codec ID : 55
Codec ID/Hint : MP3
Duration : 2h 8mn
Bit rate mode : Variable
Bit rate : 108 Kbps
Nominal bit rate : 128 Kbps
Channel(s) : 2 channels
Sampling rate : 48.0 KHz
Stream size : 99.3 MiB (12%)
Alignment : Aligned on interleaves
Interleave, duration : 24 ms (0.58 video frame)
Interleave, preload duration : 170 ms
Writing library : LAME3.98r
Encoding settings : -m j -V 4 -q 2 -lowpass 17 --abr 128
 
http://www.imdb.com/title/tt0254455/


SCREEN -  
http://leetleech.org/images/10441171265672016091.jpg